<?xml version="1.0"?>
<svg xmlns="http://www.w3.org/2000/svg" height="512px" viewBox="0 -5 512 512" width="512px"><g><path d="m256 85.292969c-33.84375 0-61.378906 27.535156-61.378906 61.378906s27.535156 61.378906 61.378906 61.378906 61.378906-27.535156 61.378906-61.378906-27.535156-61.378906-61.378906-61.378906zm0 0" data-original="#000000" class="active-path" data-old_color="#ffffff" fill="#ffffff"/><path d="m394.679688 194.554688c5.09375-14.753907 7.78125-30.21875 7.980468-45.96875.503906-39.339844-14.535156-76.542969-42.339844-104.753907-27.789062-28.195312-64.746093-43.7656248-104.058593-43.832031h-.261719c-80.878906 0-146.675781 65.796875-146.675781 146.671875 0 14.753906 2.183593 29.3125 6.484375 43.265625 6.144531 19.917969 17.199218 38.859375 31.96875 54.785156l108.222656 116.660156 108.300781-116.75c13.828125-14.90625 24.050781-31.757812 30.378907-50.078124zm-138.679688 43.503906c-50.390625 0-91.382812-40.996094-91.382812-91.382813 0-50.390625 40.992187-91.386719 91.382812-91.386719 50.386719 0 91.382812 40.996094 91.382812 91.386719 0 50.386719-40.996093 91.382813-91.382812 91.382813zm0 0" data-original="#000000" class="active-path" data-old_color="#ffffff" fill="#ffffff"/><path d="m0 502.203125h512l-103.554688-193.582031h-62.578124l-89.867188 96.878906-89.871094-96.878906h-62.574218zm0 0" data-original="#000000" class="active-path" data-old_color="#ffffff" fill="#ffffff"/></g> </svg>
