<svg width="30.000000000000004" height="30.000000000000004" xmlns="http://www.w3.org/2000/svg">

 <g>
  <title>background</title>
  <rect fill="none" id="canvas_background" height="402" width="582" y="-1" x="-1"/>
 </g>
 <g>
  <title>Layer 1</title>
  <g stroke="null" transform="rotate(-27 15.60667324066161,14.715691566467283) " id="svg_1">
   <path stroke="null" fill="#9bcb6c" id="svg_2" d="m23.220443,24.59439l-1.427524,-1.427524c4.659339,-4.659339 4.659339,-12.241912 0,-16.901251l1.42665,-1.427524c5.446095,5.447843 5.446095,14.308456 0.000874,19.756299zm-2.466915,-17.291132l-1.427524,1.425775c3.300875,3.300875 3.300875,8.671791 0,11.972667l1.429272,1.425775c4.084134,-4.085008 4.084134,-10.738335 -0.001748,-14.824217zm-2.54559,2.546465l-1.427524,1.428398c1.896954,1.895206 1.896954,4.983657 0,6.878863l1.427524,1.427524c2.682835,-2.684584 2.682835,-7.052824 0,-9.734785zm-14.019979,-0.864557c-0.150358,1.857617 -0.236901,3.717856 -0.270119,5.579843l-0.008742,0c0.000874,0.050702 0.004371,0.099656 0.004371,0.150358c0,0.051576 -0.003497,0.10053 -0.004371,0.149483l0.009616,0c0.033219,1.861987 0.119762,3.723975 0.270119,5.580717c0.389007,4.860399 4.208266,8.087844 7.953221,7.250387c0.164344,-0.033219 0.335682,-0.034967 0.490411,-0.097907c0.911762,-0.379391 1.667047,-1.084848 2.508875,-1.605855c1.073484,-0.673113 -1.240451,-6.381459 -2.674094,-5.644532c-0.529749,0.276239 -1.993113,1.35759 -2.581431,1.438888c-0.525378,0.07343 -0.936239,-0.621537 -0.988689,-1.263179c-0.137245,-1.694146 -0.013113,-3.858597 -0.002623,-5.657644l0.002623,0c0,-0.048079 -0.000874,-0.099656 -0.000874,-0.149483s0.000874,-0.102278 0.000874,-0.149483l-0.003497,0c-0.01049,-1.799047 -0.134623,-3.963498 0.002623,-5.657644c0.05245,-0.642517 0.463311,-1.338358 0.988689,-1.263179c0.588318,0.081298 2.051683,1.162649 2.581431,1.438888c1.433643,0.736927 3.746703,-4.973167 2.674094,-5.644532c-0.841828,-0.521881 -1.597113,-1.228212 -2.508875,-1.605855c-0.154729,-0.064689 -0.326941,-0.065563 -0.490411,-0.098781c-3.744955,-0.838331 -7.563341,2.389988 -7.953221,7.249513z"/>
  </g>
  <g id="svg_3"/>
  <g id="svg_4"/>
  <g id="svg_5"/>
  <g id="svg_6"/>
  <g id="svg_7"/>
  <g id="svg_8"/>
  <g id="svg_9"/>
  <g id="svg_10"/>
  <g id="svg_11"/>
  <g id="svg_12"/>
  <g id="svg_13"/>
  <g id="svg_14"/>
  <g id="svg_15"/>
  <g id="svg_16"/>
  <g id="svg_17"/>
 </g>
</svg>